<svg id="Calque_1" data-name="Calque 1" xmlns="http://www.w3.org/2000/svg" viewBox="0 0 107.17 107.17"><defs><style>.cls-1{fill:none;stroke:#2d245c;}.cls-2{fill:#2d245c;}</style></defs><title>TILPlan de travail 2</title><circle class="cls-1" cx="53.58" cy="53.58" r="53.08"/><path class="cls-2" d="M51.24,33.18H50A21.25,21.25,0,0,1,47,33l-1.64-.24a.7.7,0,0,0-.3-.06q-1.15,0-1.15.78t1.46.84q.91,0,1.83-.06,1.82-.12,2.25-.12,2.37,0,2.92,1.17t.55,6.33v17.7q0,2.58-.09,4.41t-.09,4.11a5.43,5.43,0,0,1-.81,3.45,3.78,3.78,0,0,1-3,.93,21.63,21.63,0,0,1-2.17-.09,15.39,15.39,0,0,0-1.58-.09q-1.31,0-1.31.78t1.38.84q.24,0,2.46-.33a37.44,37.44,0,0,1,5.4-.39q1.38,0,6.18.48,2.4.24,2.82.24,1.14,0,1.14-.75t-1.51-.87q-.42,0-1.45.08t-1.66.15l-.69.08a3.26,3.26,0,0,1-2.57-.87,4.55,4.55,0,0,1-.75-3l-.12-4.14V35.28a11.36,11.36,0,0,0-.06-1.56,1.08,1.08,0,0,0-1.15-.84,16.16,16.16,0,0,0-2.06.3"/></svg>