<svg id="Calque_1" data-name="Calque 1" xmlns="http://www.w3.org/2000/svg" viewBox="0 0 107.17 107.17"><defs><style>.cls-1{fill:none;stroke:#2d245c;}.cls-2{fill:#2d245c;}</style></defs><title>TILPlan de travail 3</title><circle class="cls-1" cx="53.59" cy="53.58" r="53.08"/><path class="cls-2" d="M39.76,66.24A12.22,12.22,0,0,1,44,59.94a25.91,25.91,0,0,1,9-4.08q4-1.14,6.72-2.16,6.9-2.64,6.9-10.2A10.38,10.38,0,0,0,63,35.22q-3.63-3.12-9.69-3.12a16.42,16.42,0,0,0-10.5,3.27,10.15,10.15,0,0,0-4.14,8.31q0,4,2.94,4A2.36,2.36,0,0,0,43.27,47,2,2,0,0,0,44,45.48q0-1.92-1.74-1.92a1.55,1.55,0,0,0-.75.27,1.57,1.57,0,0,1-.63.27q-.72,0-.72-1.26a6.87,6.87,0,0,1,.54-2.46q2.7-6.9,12.54-6.9,5.64,0,8.79,2.73a9.44,9.44,0,0,1,3.15,7.53,9.36,9.36,0,0,1-1.56,5.52A8.25,8.25,0,0,1,60.43,52a55.24,55.24,0,0,1-7.35,2.55q-7.32,2.1-10.62,5a12.71,12.71,0,0,0-4.32,10q0,4.68,2.64,4.68,1.68,0,1.68-1.5A1.24,1.24,0,0,0,41,71.34h-.68c-.17,0-.25-.12-.25-.35a4.49,4.49,0,0,1,.12-.53q1.74-3.38,6.55-3.38,3.61,0,7.15,3.18a24.73,24.73,0,0,0,4.27,3.33,7.11,7.11,0,0,0,3.43.81,7,7,0,0,0,5.23-2.25A7.62,7.62,0,0,0,69,66.66,6.76,6.76,0,0,0,68,62.82a3.09,3.09,0,0,0-2.58-1.62,2.27,2.27,0,0,0-1.47.51,1.53,1.53,0,0,0-.63,1.23,1.22,1.22,0,0,0,1.38,1.38,1.31,1.31,0,0,0,1-.57q.45-.57.63-.57c.2,0,.36.14.48.42a5.4,5.4,0,0,1,.9,3.12,6.19,6.19,0,0,1-1.8,4.41A5.63,5.63,0,0,1,61.72,73a5.87,5.87,0,0,1-3.84-1.38q-.6-.42-3.36-2.88-3.66-3.3-7.38-3.3A7.94,7.94,0,0,0,39.4,70.2c-.08-.72-.12-1.12-.12-1.2a10,10,0,0,1,.48-2.76"/></svg>