<svg id="Calque_1" data-name="Calque 1" xmlns="http://www.w3.org/2000/svg" viewBox="0 0 107.17 107.17"><defs><style>.cls-1{fill:none;stroke:#2d245c;}.cls-2{fill:#2d245c;}</style></defs><title>TILPlan de travail 4</title><circle class="cls-1" cx="53.59" cy="53.58" r="53.08"/><path class="cls-2" d="M66.82,34.44a1.35,1.35,0,0,0-.12-.6q-.3-.42-2.34-.42H42q-1.44-.06-1.44,1.56,0,.84.12,2.34t.12,3q0,1.14,0,2l-.14,2.46,0,.12c0,.64.25,1,.75,1s.87-.44.87-1.33v-.12Q42,43.12,42,42.46a42.78,42.78,0,0,1-.24-4.89,12.77,12.77,0,0,1,.06-1.45q.24-1.39,2.7-1.39H63.88c.56,0,.84.08.84.24s-.28.52-.84,1.08L50,49.67l-.54.48a.66.66,0,0,0-.18.48c0,.36.16.54.48.54a1.51,1.51,0,0,0,.72-.24A11.14,11.14,0,0,1,56,49.8q5.16,0,7.92,2.73t2.76,7.83a11.79,11.79,0,0,1-3.81,9.24Q59,73,52.42,73a14.72,14.72,0,0,1-8.61-2.52q-3.63-2.52-3.63-6,0-2.16,1.2-2.16a2.12,2.12,0,0,1,.9.27,2.07,2.07,0,0,0,.84.27q1.68,0,1.68-1.8,0-2-2.28-2a3.39,3.39,0,0,0-2.7,1.41,5.22,5.22,0,0,0-1.14,3.39,9,9,0,0,0,4,7.53A16.84,16.84,0,0,0,53,74.4q7,0,11.22-3.9a13.25,13.25,0,0,0,4.26-10.26,11.14,11.14,0,0,0-3.36-8.58q-3.36-3.12-9.3-3.12a11.16,11.16,0,0,0-2.94.36L65.56,36.31q1.26-1.26,1.26-1.87"/></svg>