<svg id="Calque_1" data-name="Calque 1" xmlns="http://www.w3.org/2000/svg" viewBox="0 0 107.17 107.17"><defs><style>.cls-1{fill:none;stroke:#2d245c;}</style></defs><title>TILPlan de travail 6</title><circle class="cls-1" cx="53.59" cy="53.58" r="53.08"/><path class="cls-1" d="M53.65,70.68V92M37.59,39.77,39.91,51s-6.15,1.93-6.15,19.72H73.6s2.76-10.77-5.52-19L69.76,40a7.73,7.73,0,0,0,5.14-9.23l4-1.49L76.29,22.2c-2-5-5.58-6.61-9.16-6.61s-7.09-4-7.09-4H46.68a9.05,9.05,0,0,1-8.22,4.24c-4.7,0-7.15,5.24-7.15,5.24l-3,8,4.61,2A7.78,7.78,0,0,0,45,38.94M67,94.48H40.27a1.26,1.26,0,1,1,0-2.52H67a1.26,1.26,0,1,1,0,2.52Z"/></svg>