<?xml version="1.0" encoding="iso-8859-1"?>
<!-- Generator: Adobe Illustrator 16.0.0, SVG Export Plug-In . SVG Version: 6.00 Build 0)  -->
<!DOCTYPE svg PUBLIC "-//W3C//DTD SVG 1.1//EN" "http://www.w3.org/Graphics/SVG/1.1/DTD/svg11.dtd">
<svg version="1.1" id="Capa_1" xmlns="http://www.w3.org/2000/svg" xmlns:xlink="http://www.w3.org/1999/xlink" x="0px" y="0px"
	 width="660.352px" height="660.352px" viewBox="0 0 660.352 660.352" style="enable-background:new 0 0 660.352 660.352;"
	 xml:space="preserve">
	 <defs><style>.cls-1{fill:#41465D;stroke:#41465D;}</style></defs>
<g class="cls-1">
	<g>
		<g>
			<g>
				<path d="M441.111,381.725H41.016c-9.303,0-16.84-7.536-16.84-16.84c0-9.303,7.538-16.842,16.84-16.842H441.11
					c9.304,0,16.841,7.539,16.841,16.842C457.951,374.188,450.407,381.725,441.111,381.725z M488.169,300.177H41.016
					c-9.303,0-16.84-7.538-16.84-16.84c0-9.302,7.538-16.84,16.84-16.84h447.153c9.303,0,16.841,7.538,16.841,16.84
					C505.01,292.632,497.472,300.177,488.169,300.177z"/>
			</g>
			<g>
				<path d="M415.487,660.352c-186.375,0-338-148.121-338-330.191C77.486,148.108,229.11,0,415.487,0
					c77.943,0,154.082,26.588,214.371,74.859c7.263,5.813,8.435,16.41,2.62,23.671c-5.807,7.255-16.416,8.434-23.671,2.621
					c-54.341-43.509-123.002-67.469-193.32-67.469c-167.797,0-304.319,133.005-304.319,296.485
					c0,163.5,136.521,296.512,304.319,296.512c70.387,0,139.041-23.967,193.313-67.487c7.255-5.828,17.856-4.656,23.671,2.604
					c5.82,7.256,4.655,17.853-2.605,23.672C569.643,633.758,493.504,660.352,415.487,660.352z"/>
			</g>
		</g>
	</g>
</g>
<g>
</g>
<g>
</g>
<g>
</g>
<g>
</g>
<g>
</g>
<g>
</g>
<g>
</g>
<g>
</g>
<g>
</g>
<g>
</g>
<g>
</g>
<g>
</g>
<g>
</g>
<g>
</g>
<g>
</g>
</svg>
