<svg id="Calque_1" data-name="Calque 1" xmlns="http://www.w3.org/2000/svg" viewBox="0 0 75.98 75.98"><defs><style>.cls-1{fill:#2d245c;}.cls-2{fill:none;stroke:#2d245c;stroke-width:1.04px;}</style></defs><title>TILPlan de travail 11</title><path class="cls-1" d="M43.92,32.74h-7.7V31.1A7.58,7.58,0,0,1,36.52,29a5.22,5.22,0,0,1,.73-1.52,3.9,3.9,0,0,1,1.07-1,5.45,5.45,0,0,1,1.31-.61,7.56,7.56,0,0,1,1.46-.29,14.75,14.75,0,0,1,1.5-.08c.52,0,1,0,1.53.05a11.54,11.54,0,0,1,1.51.21l.14-.9a11.65,11.65,0,0,0-1.59-.23q-.8-.06-1.63-.06a13,13,0,0,0-2.65.27,6.13,6.13,0,0,0-2.32,1,5.25,5.25,0,0,0-1.66,2,7.73,7.73,0,0,0-.68,3.32l0,1.64H30.19v1h5.07l-.05,17.76H36.3l-.07-17.76h7.7Z"/><path class="cls-2" d="M38,75.46A37.47,37.47,0,1,0,.52,38,37.47,37.47,0,0,0,38,75.46"/></svg>