<svg id="Calque_1" data-name="Calque 1" xmlns="http://www.w3.org/2000/svg" viewBox="0 0 101.22 101.22"><defs><style>.cls-1{fill:none;stroke:#2d245c;stroke-linecap:round;stroke-linejoin:round;}</style></defs><title>TILPlan de travail 9</title><path class="cls-1" d="M50.61,100.72A50.11,50.11,0,1,0,.5,50.61,50.17,50.17,0,0,0,50.61,100.72Z"/><path class="cls-1" d="M68.65,58.35A13,13,0,0,1,67,56.92a14.3,14.3,0,0,1-1.41-1.66,11.66,11.66,0,0,1-1-1.59,8.12,8.12,0,0,1-.51-1.38,13.1,13.1,0,0,1-.32-1.54,12.11,12.11,0,0,1-.13-1.61,10.8,10.8,0,0,1,.09-1.56,7.44,7.44,0,0,1,.52-2,13.21,13.21,0,0,1,.88-1.73,12.6,12.6,0,0,1,1-1.49q.54-.66,1-1.13l.39-.35.49-.41q.27-.22.56-.42l.06,0a10.27,10.27,0,0,0-1.38-1.43,11.32,11.32,0,0,0-2-1.38A10.89,10.89,0,0,0,60.53,36h-.84a9.5,9.5,0,0,0-2.41.32Q56,36.64,54.9,37l-2.15.73a6.07,6.07,0,0,1-1.89.36A5.58,5.58,0,0,1,49,37.76l-2-.7q-1-.37-2.15-.69a7.64,7.64,0,0,0-2.21-.28,11.19,11.19,0,0,0-2.94.43,11.71,11.71,0,0,0-2.68,1.15,12,12,0,0,0-4.18,4.12,10.81,10.81,0,0,0-.55,1.16q-.3.73-.57,1.57t-.47,1.69A11.27,11.27,0,0,0,31,47.7q0,.44,0,1.18t0,1.61q0,.85.1,1.67t.16,1.34c0,.39.13.83.24,1.33s.24,1,.39,1.58.29,1.06.45,1.55.31.93.44,1.29a14,14,0,0,0,.58,1.34q.39.8.84,1.64t.93,1.62q.47.78.86,1.32.77,1.07,1.62,2.16a14.37,14.37,0,0,0,1.76,1.89,8.71,8.71,0,0,0,1.93,1.32,4,4,0,0,0,2,.41,6.37,6.37,0,0,0,1.93-.34q.87-.32,1.74-.67A19.09,19.09,0,0,1,49,69.27,9.43,9.43,0,0,1,51.53,69a9.72,9.72,0,0,1,1.78.15,10.12,10.12,0,0,1,1.44.38q.66.23,1.23.49t1.1.44a9.3,9.3,0,0,0,1.18.33,6,6,0,0,0,1.37.1,4.92,4.92,0,0,0,2.11-.49,8.41,8.41,0,0,0,1.85-1.25,12.58,12.58,0,0,0,1.64-1.77q.79-1,1.57-2.12a14.77,14.77,0,0,0,.87-1.31q.46-.78.91-1.63t.83-1.68A12,12,0,0,0,70,59.19l0-.08a6.22,6.22,0,0,1-1.36-.75ZM58.49,25.19a12,12,0,0,0-3.6,2,11.16,11.16,0,0,0-1.45,1.37,12.51,12.51,0,0,0-1,1.48,10.29,10.29,0,0,0-.81,1.74,9.35,9.35,0,0,0-.46,1.89,6,6,0,0,0,0,1.47,7.05,7.05,0,0,0,1.49-.22,8.91,8.91,0,0,0,1.84-.71A9.32,9.32,0,0,0,56.17,33a9.54,9.54,0,0,0,1.38-1.4,11.69,11.69,0,0,0,1-1.59,11.35,11.35,0,0,0,.79-1.8,9,9,0,0,0,.42-1.92,7.44,7.44,0,0,0,0-1.48A7.69,7.69,0,0,0,58.49,25.19Z"/></svg>