<svg id="Calque_1" data-name="Calque 1" xmlns="http://www.w3.org/2000/svg" viewBox="0 0 107.17 107.17"><defs><style>.cls-1,.cls-2{fill:none;stroke:#2d245c;}.cls-2{stroke-linecap:round;stroke-linejoin:round;}</style></defs><title>TILPlan de travail 7</title><circle class="cls-1" cx="53.59" cy="53.58" r="53.08"/><path class="cls-2" d="M87.8,77.35H19.37a3.22,3.22,0,1,1,0-6.45H87.8a3.22,3.22,0,1,1,0,6.45ZM80.45,29.84V70.9H57.29V52.41m-22.65.09h-9V29.84h9.89m35,0h9.89"/><path class="cls-2" d="M34.85,52.41a11.21,11.21,0,0,1,22.42,0"/><path class="cls-2" d="M70.56,29.82a38.51,38.51,0,0,1-17.51,4.11,38.51,38.51,0,0,1-17.51-4.11"/><line class="cls-2" x1="30.15" y1="52.51" x2="30.15" y2="63.92"/><path class="cls-2" d="M87.13,30.67V51.35m0-4.85H80.47v-11h6.67Z"/><circle class="cls-2" cx="69.22" cy="52.79" r="4.87"/></svg>