<?xml version="1.0" encoding="iso-8859-1"?>
<!-- Generator: Adobe Illustrator 19.1.0, SVG Export Plug-In . SVG Version: 6.00 Build 0)  -->
<svg version="1.1" id="Capa_1" xmlns="http://www.w3.org/2000/svg" xmlns:xlink="http://www.w3.org/1999/xlink" x="0px" y="0px"
	 viewBox="0 0 537.6 537.6" style="enable-background:new 0 0 537.6 537.6;" xml:space="preserve">
	 <defs><style>.cls-1{fill:#41465D;stroke:#41465D;}</style></defs>
<g class="cls-1">
	<path d="M75.6,176.286h63c2.52,0,4.2-1.682,4.2-4.205c0-2.523-1.68-4.205-4.2-4.205h-63c-2.52,0-4.2,1.682-4.2,4.205
		C71.4,174.604,73.08,176.286,75.6,176.286z"/>
	<path d="M75.6,243.569h63c2.52,0,4.2-1.682,4.2-4.205c0-2.523-1.68-4.205-4.2-4.205h-63c-2.52,0-4.2,1.682-4.2,4.205
		C71.4,241.887,73.08,243.569,75.6,243.569z"/>
	<path d="M75.6,310.852h63c2.52,0,4.2-1.682,4.2-4.205c0-2.523-1.68-4.205-4.2-4.205h-63c-2.52,0-4.2,1.682-4.2,4.205
		C71.4,309.17,73.08,310.852,75.6,310.852z"/>
	<path d="M75.6,378.134h63c2.52,0,4.2-1.682,4.2-4.205s-1.68-4.205-4.2-4.205h-63c-2.52,0-4.2,1.682-4.2,4.205
		S73.08,378.134,75.6,378.134z"/>
	<path d="M489.72,45.926H462V29.106c0-2.523-1.68-4.205-4.2-4.205c-2.52,0-4.2,1.682-4.2,4.205v16.821H399V29.106
		c0-2.523-1.68-4.205-4.2-4.205c-2.52,0-4.2,1.682-4.2,4.205v16.821H336V29.106c0-2.523-1.68-4.205-4.2-4.205
		c-2.52,0-4.2,1.682-4.2,4.205v16.821H273V29.106c0-2.523-1.68-4.205-4.2-4.205c-2.52,0-4.2,1.682-4.2,4.205v16.821H210V29.106
		c0-2.523-1.68-4.205-4.2-4.205c-2.52,0-4.2,1.682-4.2,4.205v16.821H147V29.106c0-2.523-1.68-4.205-4.2-4.205
		c-2.52,0-4.2,1.682-4.2,4.205v16.821H84V29.106c0-2.523-1.68-4.205-4.2-4.205c-2.52,0-4.2,1.682-4.2,4.205v16.821H51.66
		C24.36,45.926,0,69.475,0,96.388v299.408c0,26.913,23.94,49.621,51.66,49.621h86.94c2.52,0,4.2-1.682,4.2-4.205
		c0-2.523-1.68-4.205-4.2-4.205H51.66c-23.52,0-43.26-18.923-43.26-41.211V100.593v-4.205c0-22.287,20.16-42.052,43.26-42.052H75.6
		v16.821c0,2.523,1.68,4.205,4.2,4.205c2.52,0,4.2-1.682,4.2-4.205V54.337h54.6v16.821c0,2.523,1.68,4.205,4.2,4.205
		c2.52,0,4.2-1.682,4.2-4.205V54.337h54.6v16.821c0,2.523,1.68,4.205,4.2,4.205c2.52,0,4.2-1.682,4.2-4.205V54.337h54.6v16.821
		c0,2.523,1.68,4.205,4.2,4.205c2.52,0,4.2-1.682,4.2-4.205V54.337h54.6v16.821c0,2.523,1.68,4.205,4.2,4.205
		c2.52,0,4.2-1.682,4.2-4.205V54.337h54.6v16.821c0,2.523,1.68,4.205,4.2,4.205c2.52,0,4.2-1.682,4.2-4.205V54.337h54.6v16.821
		c0,2.523,1.68,4.205,4.2,4.205c2.52,0,4.2-1.682,4.2-4.205V54.337h27.72c22.26,0,39.48,18.503,39.48,42.052l0,0h-63
		c-2.52,0-4.2,1.682-4.2,4.205c0,2.523,1.68,4.205,4.2,4.205h63v290.997c0,23.549-16.8,41.211-39.48,41.211H403.2
		c-2.52,0-4.2,1.682-4.2,4.205c0,2.523,1.68,4.205,4.2,4.205h86.52c26.88,0,47.88-21.867,47.88-49.621V96.388
		C537.6,68.214,516.6,45.926,489.72,45.926z"/>
	<path d="M12.6,104.799h399c2.52,0,4.2-1.682,4.2-4.205c0-2.523-1.68-4.205-4.2-4.205h-399c-2.52,0-4.2,1.682-4.2,4.205
		C8.4,103.117,10.08,104.799,12.6,104.799z"/>
	<path d="M184.8,176.286h58.8c2.52,0,4.2-1.682,4.2-4.205c0-2.523-1.68-4.205-4.2-4.205h-58.8c-2.52,0-4.2,1.682-4.2,4.205
		C180.6,174.604,182.28,176.286,184.8,176.286z"/>
	<path d="M184.8,243.569h58.8c2.52,0,4.2-1.682,4.2-4.205c0-2.523-1.68-4.205-4.2-4.205h-58.8c-2.52,0-4.2,1.682-4.2,4.205
		C180.6,241.887,182.28,243.569,184.8,243.569z"/>
	<path d="M294,176.286h58.8c2.52,0,4.2-1.682,4.2-4.205c0-2.523-1.68-4.205-4.2-4.205H294c-2.52,0-4.2,1.682-4.2,4.205
		C289.8,174.604,291.48,176.286,294,176.286z"/>
	<path d="M294,243.569h58.8c2.52,0,4.2-1.682,4.2-4.205c0-2.523-1.68-4.205-4.2-4.205H294c-2.52,0-4.2,1.682-4.2,4.205
		C289.8,241.887,291.48,243.569,294,243.569z"/>
	<path d="M403.2,176.286H462c2.52,0,4.2-1.682,4.2-4.205c0-2.523-1.68-4.205-4.2-4.205h-58.8c-2.52,0-4.2,1.682-4.2,4.205
		C399,174.604,400.68,176.286,403.2,176.286z"/>
	<path d="M403.2,243.569H462c2.52,0,4.2-1.682,4.2-4.205c0-2.523-1.68-4.205-4.2-4.205h-58.8c-2.52,0-4.2,1.682-4.2,4.205
		C399,241.887,400.68,243.569,403.2,243.569z"/>
	<path d="M403.2,310.852H462c2.52,0,4.2-1.682,4.2-4.205c0-2.523-1.68-4.205-4.2-4.205h-58.8c-2.52,0-4.2,1.682-4.2,4.205
		C399,309.17,400.68,310.852,403.2,310.852z"/>
	<path d="M403.2,378.134H462c2.52,0,4.2-1.682,4.2-4.205s-1.68-4.205-4.2-4.205h-58.8c-2.52,0-4.2,1.682-4.2,4.205
		S400.68,378.134,403.2,378.134z"/>
	<path d="M270.9,512.699c67.2,0,121.8-54.667,121.8-121.95S338.1,268.8,270.9,268.8s-121.8,54.667-121.8,121.95
		S203.7,512.699,270.9,512.699z M270.9,277.631c62.58,0,113.4,50.882,113.4,113.539S333.48,504.71,270.9,504.71
		S157.5,453.827,157.5,391.17S208.32,277.631,270.9,277.631z"/>
	<path d="M270.9,495.879c57.96,0,105-47.098,105-105.129s-47.04-105.129-105-105.129s-105,47.098-105,105.129
		S212.94,495.879,270.9,495.879z M270.9,294.451c53.34,0,96.6,43.313,96.6,96.719s-43.26,96.719-96.6,96.719
		s-96.6-43.313-96.6-96.719S217.56,294.451,270.9,294.451z"/>
	<path d="M253.68,433.222c2.52,2.523,5.46,3.785,8.82,3.785s6.72-1.262,8.82-3.785l58.8-58.872c2.52-2.523,3.78-5.467,3.78-8.831
		c0-3.364-1.26-6.728-3.78-8.831c-4.62-4.626-13.02-4.626-17.64,0l-49.98,50.041l-25.62-25.651c-4.62-4.626-13.02-4.626-17.64,0
		c-5.04,5.046-5.04,13.036,0,17.662L253.68,433.222z M225.12,386.545c0.84-0.841,1.68-1.262,2.94-1.262s2.1,0.421,2.94,1.262
		l28.56,28.595c1.68,1.682,4.2,1.682,5.88,0l52.92-52.985c1.68-1.682,4.2-1.682,5.88,0c0.84,0.841,1.26,1.682,1.26,2.944
		c0,1.262-0.42,2.103-1.26,2.944l-58.8,58.872c-1.68,1.682-4.2,1.682-5.88,0l-34.44-34.482
		C223.44,391.17,223.44,388.227,225.12,386.545z"/>
</g>
<g>
</g>
<g>
</g>
<g>
</g>
<g>
</g>
<g>
</g>
<g>
</g>
<g>
</g>
<g>
</g>
<g>
</g>
<g>
</g>
<g>
</g>
<g>
</g>
<g>
</g>
<g>
</g>
<g>
</g>
</svg>
