<?xml version="1.0" encoding="iso-8859-1"?>
<!-- Generator: Adobe Illustrator 18.1.1, SVG Export Plug-In . SVG Version: 6.00 Build 0)  -->
<svg version="1.1" id="Capa_1" xmlns="http://www.w3.org/2000/svg" xmlns:xlink="http://www.w3.org/1999/xlink" x="0px" y="0px"
	 viewBox="0 0 50.244 50.244" style="enable-background:new 0 0 50.244 50.244;" xml:space="preserve">
	 <defs><style>.cls-1{fill:#41465D;stroke:#41465D;}</style></defs>
<g class="cls-1">
	<path style="fill:#010002;" d="M49.63,18.997l-18.016-0.324L25.713,1.62c-0.087-0.252-0.324-0.422-0.594-0.422
		c-0.268,0.002-0.504,0.174-0.59,0.427l-5.704,16.952l-18.214,0.42c-0.261,0.005-0.493,0.175-0.577,0.423
		c-0.085,0.248-0.005,0.524,0.199,0.688L14.809,31.87l-5.42,16.354c-0.086,0.261,0.005,0.543,0.226,0.702
		c0.213,0.156,0.517,0.157,0.739-0.002l14.768-10.932l14.769,10.932c0.109,0.08,0.237,0.122,0.371,0.122
		c0.128,0,0.253-0.04,0.36-0.114c0.221-0.154,0.317-0.433,0.238-0.691l-4.949-16.37l14.108-11.769c0.2-0.166,0.276-0.441,0.19-0.687
		C50.122,19.17,49.89,19.002,49.63,18.997z M34.792,31.175c-0.193,0.161-0.271,0.421-0.198,0.661l4.523,14.959L25.493,36.711
		c-0.109-0.08-0.237-0.122-0.371-0.122s-0.262,0.042-0.372,0.122L11.196,46.744l4.936-14.894c0.081-0.245,0-0.519-0.201-0.682
		L2.346,20.208l16.947-0.391c0.262-0.008,0.495-0.179,0.578-0.427l5.26-15.632l5.446,15.734c0.085,0.247,0.318,0.417,0.58,0.422
		l16.774,0.301L34.792,31.175z"/>
</g>
<g>
</g>
<g>
</g>
<g>
</g>
<g>
</g>
<g>
</g>
<g>
</g>
<g>
</g>
<g>
</g>
<g>
</g>
<g>
</g>
<g>
</g>
<g>
</g>
<g>
</g>
<g>
</g>
<g>
</g>
</svg>
