<?xml version="1.0" encoding="iso-8859-1"?>
<!-- Generator: Adobe Illustrator 19.1.0, SVG Export Plug-In . SVG Version: 6.00 Build 0)  -->
<svg version="1.1" id="Capa_1" xmlns="http://www.w3.org/2000/svg" xmlns:xlink="http://www.w3.org/1999/xlink" x="0px" y="0px"
	 viewBox="0 0 194.665 194.665" style="enable-background:new 0 0 194.665 194.665;" xml:space="preserve">
	 	 <defs><style>.cls-1{fill:#41465D;stroke:#41465D;}</style></defs>
<g class="cls-1">
	<g>
		<g>
			<path d="M97.333,194.665c-53.667,0-97.329-43.663-97.329-97.333S43.665,0,97.333,0s97.329,43.663,97.329,97.333
				S151,194.665,97.333,194.665z M97.333,1.6C44.547,1.6,1.603,44.545,1.603,97.333s42.944,95.733,95.729,95.733
				s95.729-42.946,95.729-95.733S150.118,1.6,97.333,1.6z"/>
		</g>
	</g>
	<g>
		<g>
			<g>
				<path d="M98.401,165.386c-0.361,0-0.72-0.003-1.082-0.009c-37.493-0.619-67.347-30.471-67.965-67.962
					c-0.007-0.442,0.345-0.806,0.787-0.813c0.446-0.001,0.805,0.345,0.813,0.787c0.604,36.623,29.767,65.785,66.392,66.389
					c17.452,0.292,34.036-6.66,46.669-19.571c12.231-12.501,19.411-29.565,19.696-46.818c0.007-0.443,0.409-0.773,0.813-0.787
					c0.442,0.007,0.794,0.371,0.787,0.813c-0.292,17.658-7.638,35.12-20.152,47.91C132.476,158.287,115.907,165.386,98.401,165.386z
					"/>
			</g>
		</g>
	</g>
	<g>
		<path d="M68.005,80.005c-8.801,0-15.961-7.161-15.961-15.963c0-8.798,7.16-15.956,15.961-15.956
			c8.799,0,15.958,7.158,15.958,15.956C83.962,72.844,76.804,80.005,68.005,80.005z M68.005,49.686
			c-7.919,0-14.362,6.44-14.362,14.356c0,7.92,6.443,14.363,14.362,14.363c7.917,0,14.358-6.443,14.358-14.363
			C82.363,56.126,75.922,49.686,68.005,49.686z"/>
	</g>
	<g>
		<path d="M125.317,80.005c-8.801,0-15.961-7.161-15.961-15.963c0-8.798,7.16-15.956,15.961-15.956
			c8.799,0,15.958,7.158,15.958,15.956C141.275,72.844,134.117,80.005,125.317,80.005z M125.317,49.686
			c-7.919,0-14.361,6.44-14.361,14.356c0,7.92,6.442,14.363,14.361,14.363c7.917,0,14.358-6.443,14.358-14.363
			C139.676,56.126,133.234,49.686,125.317,49.686z"/>
	</g>
</g>
<g>
</g>
<g>
</g>
<g>
</g>
<g>
</g>
<g>
</g>
<g>
</g>
<g>
</g>
<g>
</g>
<g>
</g>
<g>
</g>
<g>
</g>
<g>
</g>
<g>
</g>
<g>
</g>
<g>
</g>
</svg>
